HIERARCHY
ROOT hips
{
  OFFSET 0 10.6860622 2.3727825e-15
  CHANNELS 6 Xposition Yposition Zposition Yrotation Xrotation Zrotation
  JOINT leftUpperLeg
  {
    OFFSET 0.6642549969 -0.9402397400000004 0
    CHANNELS 3 Yrotation Xrotation Zrotation
    JOINT leftLowerLeg
    {
      OFFSET 0 -3.997221335632195 0
      CHANNELS 3 Yrotation Xrotation Zrotation
      JOINT leftFoot
      {
        OFFSET -0.13777839790000004 -4.6145792000000005 -0.22186036399999998
        CHANNELS 3 Yrotation Xrotation Zrotation
        JOINT leftToes
        {
          OFFSET -0.03777410834999995 -0.9130806927000008 0.85230013
          CHANNELS 3 Yrotation Xrotation Zrotation
          End Site
          {
            OFFSET -0.03777410834999995 -0.9130806927000008 0.85230013
          }
        }
      }
    }
  }
  JOINT rightUpperLeg
  {
    OFFSET -0.6642778626 -0.9402397400000004 0
    CHANNELS 3 Yrotation Xrotation Zrotation
    JOINT rightLowerLeg
    {
      OFFSET 0 -3.997221452859387 0
      CHANNELS 3 Yrotation Xrotation Zrotation
      JOINT rightFoot
      {
        OFFSET 0.1377926176 -4.6145792000000005 -0.22185782299999995
        CHANNELS 3 Yrotation Xrotation Zrotation
        JOINT rightToes
        {
          OFFSET 0.037780746850000047 -0.9130806927000008 0.85230167
          CHANNELS 3 Yrotation Xrotation Zrotation
          End Site
          {
            OFFSET 0.037780746850000047 -0.9130806927000008 0.85230167
          }
        }
      }
    }
  }
  JOINT spine
  {
    OFFSET 0 0.13988381660000015 0
    CHANNELS 3 Yrotation Xrotation Zrotation
    JOINT chest
    {
      OFFSET 0 0.6191039003973773 0
      CHANNELS 3 Yrotation Xrotation Zrotation
      JOINT upperChest
      {
        OFFSET 0 0.9855186130586943 0
        CHANNELS 3 Yrotation Xrotation Zrotation
        JOINT leftShoulder
        {
          OFFSET 0.1807663869 1.5087829790000005 0
          CHANNELS 3 Yrotation Xrotation Zrotation
          JOINT leftUpperArm
          {
            OFFSET 0.5985063006419806 0 0
            CHANNELS 3 Yrotation Xrotation Zrotation
            JOINT leftLowerArm
            {
              OFFSET 2.2993332369501065 0 0
              CHANNELS 3 Yrotation Xrotation Zrotation
              JOINT leftHand
              {
                OFFSET 2.395047042602395 0 0
                CHANNELS 3 Yrotation Xrotation Zrotation
                JOINT leftIndexProximal
                {
                  OFFSET 0.5766295810000004 0.04556643899499946 0.17265095988184
                  CHANNELS 3 Yrotation Xrotation Zrotation
                  JOINT leftIndexIntermediate
                  {
                    OFFSET 0.2957229000000008 -0.019352197700001517 -0.007932640616999987
                    CHANNELS 3 Yrotation Xrotation Zrotation
                    JOINT leftIndexDistal
                    {
                      OFFSET 0.19008243099999922 -0.012484908149998475 -0.002786250786000012
                      CHANNELS 3 Yrotation Xrotation Zrotation
                      End Site
                      {
                        OFFSET 0.19008243099999922 -0.012484908149998475 -0.002786250786000012
                      }
                    }
                  }
                }
                JOINT leftMiddleProximal
                {
                  OFFSET 0.5834975091000001 0.0524350405149987 0.02204081888183999
                  CHANNELS 3 Yrotation Xrotation Zrotation
                  JOINT leftMiddleIntermediate
                  {
                    OFFSET 0.33880573540000003 -0.019871473270000717 -0.00000971183179999946
                    CHANNELS 3 Yrotation Xrotation Zrotation
                    JOINT leftMiddleDistal
                    {
                      OFFSET 0.20676022730000088 -0.012221336379999448 0.0001471936708000235
                      CHANNELS 3 Yrotation Xrotation Zrotation
                      End Site
                      {
                        OFFSET 0.20676022730000088 -0.012221336379999448 0.0001471936708000235
                      }
                    }
                  }
                }
                JOINT leftLittleProximal
                {
                  OFFSET 0.5344154683999995 -0.012880921405001189 -0.24414037221816004
                  CHANNELS 3 Yrotation Xrotation Zrotation
                  JOINT leftLittleIntermediate
                  {
                    OFFSET 0.21758961730000093 -0.011650919939999227 0.011893592810000034
                    CHANNELS 3 Yrotation Xrotation Zrotation
                    JOINT leftLittleDistal
                    {
                      OFFSET 0.1475273964999999 -0.008152365682999818 0.006001092492999946
                      CHANNELS 3 Yrotation Xrotation Zrotation
                      End Site
                      {
                        OFFSET 0.1475273964999999 -0.008152365682999818 0.006001092492999946
                      }
                    }
                  }
                }
                JOINT leftRingProximal
                {
                  OFFSET 0.5799399463000003 0.026911854694997794 -0.12150566991816003
                  CHANNELS 3 Yrotation Xrotation Zrotation
                  JOINT leftRingIntermediate
                  {
                    OFFSET 0.26167887460000006 -0.013480186499999602 0.010996293000000053
                    CHANNELS 3 Yrotation Xrotation Zrotation
                    JOINT leftRingDistal
                    {
                      OFFSET 0.17667108799999987 -0.008990287899999228 0.0055541023999999065
                      CHANNELS 3 Yrotation Xrotation Zrotation
                      End Site
                      {
                        OFFSET 0.17667108799999987 -0.008990287899999228 0.0055541023999999065
                      }
                    }
                  }
                }
                JOINT leftThumbProximal
                {
                  OFFSET 0.11018806699999972 -0.09448718900500053 0.17047963138184
                  CHANNELS 3 Yrotation Xrotation Zrotation
                  JOINT leftThumbIntermediate
                  {
                    OFFSET 0.31062601459999983 -0.08126270900000132 0.15443142000000007
                    CHANNELS 3 Yrotation Xrotation Zrotation
                    JOINT leftThumbDistal
                    {
                      OFFSET 0.21627175790000086 -0.08833193599999878 0.018771167799999988
                      CHANNELS 3 Yrotation Xrotation Zrotation
                      End Site
                      {
                        OFFSET 0.21627175790000086 -0.08833193599999878 0.018771167799999988
                      }
                    }
                  }
                }
              }
            }
          }
        }
        JOINT neck
        {
          OFFSET 0 1.5463305265074576 0
          CHANNELS 3 Yrotation Xrotation Zrotation
          JOINT head
          {
            OFFSET 0 0.8456443600000344 0
            CHANNELS 3 Yrotation Xrotation Zrotation
            JOINT leftEye
            {
              OFFSET 0.30408573140000006 0.5104519199999995 0.1276382305
              CHANNELS 3 Yrotation Xrotation Zrotation
              End Site
              {
                OFFSET 0.30408573140000006 0.5104519199999995 0.1276382305
              }
            }
            JOINT rightEye
            {
              OFFSET -0.30409491089999996 0.5104519199999995 0.1276379445
              CHANNELS 3 Yrotation Xrotation Zrotation
              End Site
              {
                OFFSET -0.30409491089999996 0.5104519199999995 0.1276379445
              }
            }
            JOINT jaw
            {
              OFFSET -3.155239131000001e-7 -0.11984121820000082 0.60178107
              CHANNELS 3 Yrotation Xrotation Zrotation
              End Site
              {
                OFFSET -3.155239131000001e-7 -0.11984121820000082 0.60178107
              }
            }
          }
        }
        JOINT rightShoulder
        {
          OFFSET -0.1807303465 1.5087829790000005 0
          CHANNELS 3 Yrotation Xrotation Zrotation
          JOINT rightUpperArm
          {
            OFFSET -0.5985063796536958 0 0
            CHANNELS 3 Yrotation Xrotation Zrotation
            JOINT rightLowerArm
            {
              OFFSET -2.2993322059002854 0 0
              CHANNELS 3 Yrotation Xrotation Zrotation
              JOINT rightHand
              {
                OFFSET -2.395045314457259 0 0
                CHANNELS 3 Yrotation Xrotation Zrotation
                JOINT rightIndexProximal
                {
                  OFFSET -0.5764487688300002 0.0441371204405987 0.17361932004999997
                  CHANNELS 3 Yrotation Xrotation Zrotation
                  JOINT rightIndexIntermediate
                  {
                    OFFSET -0.29573011380000047 -0.01934826376999843 -0.007698921482999974
                    CHANNELS 3 Yrotation Xrotation Zrotation
                    JOINT rightIndexDistal
                    {
                      OFFSET -0.19008373999999884 -0.012503266380000655 -0.0026365778999999897
                      CHANNELS 3 Yrotation Xrotation Zrotation
                      End Site
                      {
                        OFFSET -0.19008373999999884 -0.012503266380000655 -0.0026365778999999897
                      }
                    }
                  }
                }
                JOINT rightMiddleProximal
                {
                  OFFSET -0.5834852037300005 0.05211639405060153 0.02307162440000001
                  CHANNELS 3 Yrotation Xrotation Zrotation
                  JOINT rightMiddleIntermediate
                  {
                    OFFSET -0.33880114510000003 -0.019952774050000954 0.0002455003561999819
                    CHANNELS 3 Yrotation Xrotation Zrotation
                    JOINT rightMiddleDistal
                    {
                      OFFSET -0.20675694929999955 -0.012273788999999091 0.00030209124000002766
                      CHANNELS 3 Yrotation Xrotation Zrotation
                      End Site
                      {
                        OFFSET -0.20675694929999955 -0.012273788999999091 0.00030209124000002766
                      }
                    }
                  }
                }
                JOINT rightLittleProximal
                {
                  OFFSET -0.5346811737299992 -0.011214256288399227 -0.24363941305000003
                  CHANNELS 3 Yrotation Xrotation Zrotation
                  JOINT rightLittleIntermediate
                  {
                    OFFSET -0.21757715980000092 -0.011771559690000988 0.01201554387
                    CHANNELS 3 Yrotation Xrotation Zrotation
                    JOINT rightLittleDistal
                    {
                      OFFSET -0.1475201849000004 -0.00822055339600003 0.006082065407000015
                      CHANNELS 3 Yrotation Xrotation Zrotation
                      End Site
                      {
                        OFFSET -0.1475201849000004 -0.00822055339600003 0.006082065407000015
                      }
                    }
                  }
                }
                JOINT rightRingProximal
                {
                  OFFSET -0.5800810755299999 0.027657985680600072 -0.12066365025000003
                  CHANNELS 3 Yrotation Xrotation Zrotation
                  JOINT rightRingIntermediate
                  {
                    OFFSET -0.26166445029999974 -0.013623118409999302 0.011164098990000045
                    CHANNELS 3 Yrotation Xrotation Zrotation
                    JOINT rightRingDistal
                    {
                      OFFSET -0.17666387530000027 -0.009072900100000503 0.005668185599999959
                      CHANNELS 3 Yrotation Xrotation Zrotation
                      End Site
                      {
                        OFFSET -0.17666387530000027 -0.009072900100000503 0.005668185599999959
                      }
                    }
                  }
                }
                JOINT rightThumbProximal
                {
                  OFFSET -0.10997596379000074 -0.09577489355940072 0.16989765924999997
                  CHANNELS 3 Yrotation Xrotation Zrotation
                  JOINT rightThumbIntermediate
                  {
                    OFFSET -0.31036620999999986 -0.08229339117999834 0.15440884469999996
                    CHANNELS 3 Yrotation Xrotation Zrotation
                    JOINT rightThumbDistal
                    {
                      OFFSET -0.21631306399999906 -0.08825326400000111 0.018656797720000014
                      CHANNELS 3 Yrotation Xrotation Zrotation
                      End Site
                      {
                        OFFSET -0.21631306399999906 -0.08825326400000111 0.018656797720000014
                      }
                    }
                  }
                }
              }
            }
          }
        }
      }
    }
  }
}
MOTION
Frames: 5
Frame Time: 0.03333333333333333
-0.08464770166268092 -0.033052508211343555 3.7404072882550863 -179.9911202840454 -10.606555215264821 -0.0008254343866380309 10.783406802671658 -9.410964034224145 3.7690647068914913 3.604730640900383 37.06128228320753 8.17202503859533 6.221590238394486 -18.173475326893325 -17.752218349039442 0 0 0 -10.874854462365779 -9.323316572850208 -2.722081606021667 -3.6227812756611764 37.22656147824954 -8.326724458114432 -6.452037711444891 -18.026251511366066 17.01382236635291 0 0 0 -0.1321208604769208 6.7525446262126225 -0.2779226431601715 -0.5672528809653946 13.764098793720187 0.21278073493537836 0 0 0 28.447810173798587 22.40881179959927 -13.383655135968175 -117.03744940135354 -51.474743622025066 13.331735992751504 -67.81003464197127 -4.595174563488665 -12.861393734854031 20.65468638034009 -2.282568007154586 -4.305748873326921 0 0 0 0 0 0 0 0 0 0 0 0 0 0 0 0 0 0 0 0 0 0 0 0 0 0 0 0 0 0 0 0 0 0 0 0 0 0 0 0 0 0 0 0 0 0 -19.98697052290175 0 0 -36.19186703400227 0 0 0 0 0 0 0 0 0 0 -17.318782195408442 16.529669016578683 11.855318120647032 115.81478160551733 -54.400257558062236 -15.854528316808366 40.467567707400086 -0.4044015695324625 4.896859575850415 -2.4811160019760954 1.5964064939686806 7.7348169699846405 0 0 0 0 0 0 0 0 0 0 0 0 0 0 0 0 0 0 0 0 0 0 0 0 0 0 0 0 0 0 0 0 0 0 0 0 0 0 0 0 0 0 0 0 0
-0.08464770166268092 -0.033052508211343555 3.813501239422583 -179.9823008074151 -9.210404996819447 -0.001425940672411481 10.702402299002047 -11.30522905423409 3.411354841334362 3.604730640900383 37.06128228320753 8.17202503859533 6.288194677029988 -17.738820937105345 -17.632570504355026 0 0 0 -10.82662783205009 -11.205109291374294 -2.362599055181715 -3.6227812756611764 37.22656147824954 -8.326724458114432 -6.495398012284128 -17.6031619625195 16.888899941779684 0 0 0 -0.1324813804247893 7.418865265215645 -0.2795135078367052 -0.5623301276133246 11.513107960223664 0.2355930150602473 0 0 0 28.808519517095597 22.580314019075836 -13.321074178283464 -117.03744940135354 -51.474743622025066 13.331735992751504 -68.41379531137491 -4.743853315986923 -13.077761303553533 21.1871876036005 -2.5276363250919727 -4.246075987772736 0 0 0 0 0 0 0 0 0 0 0 0 0 0 0 0 0 0 0 0 0 0 0 0 0 0 0 0 0 0 0 0 0 0 0 0 0 0 0 0 0 0 0 0 0 0 -19.50049351328713 0 0 -35.38115151890898 0 0 0 0 0 0 0 0 0 0 -17.660911777665923 16.780252571198066 11.890876828770311 115.76137586836674 -54.40047462496022 -15.79093711942306 41.509075177066485 -0.4775664334353868 5.1286666582278615 -3.2224295512078855 1.5335351608065517 7.70508895513996 0 0 0 0 0 0 0 0 0 0 0 0 0 0 0 0 0 0 0 0 0 0 0 0 0 0 0 0 0 0 0 0 0 0 0 0 0 0 0 0 0 0 0 0 0
-0.08464770166268092 -0.033052508211343555 3.88659519059008 -179.97350915336418 -7.8119363154984045 -0.0018086880982830834 10.632756399925913 -13.205961107681215 3.0526806962924 3.604730640900383 37.06128228320753 8.17202503859533 6.355601740314433 -17.304224397161416 -17.512652867888765 0 0 0 -10.79007997762958 -13.093035828063796 -2.0010605676171926 -3.6227812756611764 37.22656147824954 -8.326724458114432 -6.539631618398186 -17.18009086986914 16.763909541071836 0 0 0 -0.1328621836987158 8.085430738816786 -0.28111191729532164 -0.5583337058398027 9.252383166280863 0.25814205040390026 0 0 0 29.169925785136144 22.75146339043849 -13.257245060182498 -117.03744940135354 -51.474743622025066 13.331735992751504 -69.01731851916246 -4.894849437408231 -13.292668810025424 21.719693268838974 -2.773320845842124 -4.188657323335801 0 0 0 0 0 0 0 0 0 0 0 0 0 0 0 0 0 0 0 0 0 0 0 0 0 0 0 0 0 0 0 0 0 0 0 0 0 0 0 0 0 0 0 0 0 0 -19.01364712502161 0 0 -34.56871434812825 0 0 0 0 0 0 0 0 0 0 -18.003395874133385 17.0310777403228 11.924925328936393 115.70797214788045 -54.40066235941995 -15.72734320724756 42.55131415370834 -0.5550093076775449 5.35933111689174 -3.9640312448548647 1.4702542336048436 7.676163064194408 0 0 0 0 0 0 0 0 0 0 0 0 0 0 0 0 0 0 0 0 0 0 0 0 0 0 0 0 0 0 0 0 0 0 0 0 0 0 0 0 0 0 0 0 0
-0.08464770166268092 -0.033052508211343555 3.959689141757577 -179.96473040141737 -6.411563207916413 -0.001975537854430372 10.57471084471092 -15.112018381130465 2.692448966219538 3.604730640900383 37.06128228320753 8.17202503859533 6.4238123601037005 -16.869699632058452 -17.39246956458374 0 0 0 -10.765517441087024 -14.985992458890388 -1.6368470436275606 -3.6227812756611764 37.22656147824954 -8.326724458114432 -6.584733911335515 -16.75705256581389 16.638843279370636 0 0 0 -0.13326242122157544 8.752200489878474 -0.2827189349825474 -0.5552470865617524 6.983628644076243 0.28048501818204324 0 0 0 29.532026049922123 22.92225826680792 -13.192154634825854 -117.03744940135354 -51.474743622025066 13.331735992751504 -69.62062676516214 -5.048143237886133 -13.506084232600555 22.25219880959353 -3.019586485930204 -4.13350387608161 0 0 0 0 0 0 0 0 0 0 0 0 0 0 0 0 0 0 0 0 0 0 0 0 0 0 0 0 0 0 0 0 0 0 0 0 0 0 0 0 0 0 0 0 0 0 -18.52646626843068 0 0 -33.75466272254672 0 0 0 0 0 0 0 0 0 0 -18.34622510750843 17.282121694460002 11.957449456014958 115.65450525095895 -54.40080902756446 -15.66371066137635 43.59405953854182 -0.6367002866021438 5.588731911314563 -4.7058634983027 1.4065805378630973 7.648050132906442 0 0 0 0 0 0 0 0 0 0 0 0 0 0 0 0 0 0 0 0 0 0 0 0 0 0 0 0 0 0 0 0 0 0 0 0 0 0 0 0 0 0 0 0 0
-0.08464770166268092 -0.033052508211343555 4.032782824532802 -179.95597783148236 -5.009700090095905 -0.0019252093378983692 10.528561549737498 -17.022266492178208 2.3300337656969563 3.604730640900383 37.06128228320753 8.17202503859533 6.49282651235194 -16.43526218202271 -17.272000908065895 0 0 0 -10.753282051236665 -16.88284347979214 -1.2692932056530348 -3.6227812756611764 37.22656147824954 -8.326724458114432 -6.630707123164598 -16.334071886935742 16.51369083473808 0 0 0 -0.13368147327022195 9.419130247500492 -0.28433282130083115 -0.5530562542456037 4.708590811301515 0.3026749284441212 0 0 0 29.894829444551824 23.092685837176685 -13.125805026084713 -117.03744940135354 -51.474743622025066 13.331735992751504 -70.22364022085156 -5.2037035566790415 -13.717970545984679 22.78468875158003 -3.2663994796219087 -4.080622037736946 0 0 0 0 0 0 0 0 0 0 0 0 0 0 0 0 0 0 0 0 0 0 0 0 0 0 0 0 0 0 0 0 0 0 0 0 0 0 0 0 0 0 0 0 0 0 -18.03894389872663 0 0 -32.939043434766084 0 0 0 0 0 0 0 0 0 0 -18.689406965717716 17.53337403601063 11.98844615882492 115.60112709050335 -54.40092049570503 -15.600131003021806 44.63712021165727 -0.7226045583309686 5.816752078106285 -5.447862434710008 1.342529720219898 7.620755923793036 0 0 0 0 0 0 0 0 0 0 0 0 0 0 0 0 0 0 0 0 0 0 0 0 0 0 0 0 0 0 0 0 0 0 0 0 0 0 0 0 0 0 0 0 0
